<svg width="54" height="54" viewBox="0 0 54 54" fill="none" xmlns="http://www.w3.org/2000/svg">
<path d="M42.9565 12.4895C42.3605 9.32924 39.6452 7.04309 36.4001 7.04309H31.2344C28.0555 7.04309 25.3401 9.32924 24.6779 12.4895C23.8832 12.7585 23.2871 13.4981 23.2871 14.3722C23.2871 14.9101 23.4858 15.3808 23.8169 15.717C23.4858 16.0532 23.2871 16.5239 23.2871 17.0618C23.2871 17.9359 23.8832 18.7428 24.6779 18.9445C25.2739 22.1048 27.9892 24.3909 31.2344 24.3909H36.4001C39.579 24.3909 42.2943 22.1048 42.9565 18.9445C43.7513 18.6755 44.3473 17.9359 44.3473 17.0618C44.3473 16.5239 44.1486 16.0532 43.8175 15.717C44.1486 15.3808 44.3473 14.9101 44.3473 14.3722C44.4135 13.4981 43.8175 12.7585 42.9565 12.4895ZM31.2344 8.38788H36.4001C38.8505 8.38788 40.9035 10.0689 41.5658 12.4223H41.3009L41.1684 12.2878C40.9035 11.8843 40.4399 11.7499 39.9763 11.7499H39.579C39.1154 11.7499 38.6518 11.9516 38.3206 12.2878C38.2544 12.355 38.122 12.4223 37.9895 12.4223H37.5922C37.4597 12.4223 37.3272 12.355 37.261 12.2878C36.9299 11.8843 36.4663 11.7499 36.0027 11.7499H35.6053C35.1418 11.7499 34.6782 11.9516 34.347 12.2878C34.2808 12.355 34.1483 12.4223 34.0159 12.4223H33.6185C33.4861 12.4223 33.3536 12.355 33.2874 12.2878C33.0225 11.8843 32.5589 11.7499 32.0953 11.7499H31.6979C31.2344 11.7499 30.7708 11.9516 30.4396 12.2878C30.3734 12.355 30.2409 12.4223 30.1085 12.4223H29.7111C29.5787 12.4223 29.4462 12.355 29.38 12.2878C29.0489 11.8843 28.5853 11.7499 28.1217 11.7499H27.7243C27.2607 11.7499 26.7971 11.9516 26.466 12.2878L26.3336 12.355H26.1349C26.7309 10.0689 28.8502 8.38788 31.2344 8.38788ZM25.2739 13.6998H26.8634L27.3932 13.1619C27.5256 13.0947 27.5919 13.0274 27.7243 13.0274H28.1217C28.2541 13.0274 28.3866 13.0947 28.4528 13.1619C28.784 13.4981 29.2475 13.6998 29.7111 13.6998H30.1085C30.5721 13.6998 31.0357 13.4981 31.3668 13.1619C31.433 13.0947 31.5655 13.0274 31.6979 13.0274H32.0953C32.2278 13.0274 32.3602 13.0947 32.4264 13.1619C32.7576 13.4981 33.2212 13.6998 33.6848 13.6998H34.0821C34.5457 13.6998 35.0093 13.4981 35.3404 13.1619C35.4067 13.0947 35.5391 13.0274 35.6053 13.0274H36.0027C36.1352 13.0274 36.2676 13.0947 36.3338 13.1619C36.665 13.4981 37.1286 13.6998 37.5922 13.6998H37.9895C38.4531 13.6998 38.9167 13.4981 39.2478 13.1619C39.3141 13.0947 39.4465 13.0274 39.579 13.0274H39.9763C40.1088 13.0274 40.2412 13.0947 40.3075 13.1619L40.8373 13.6998H42.4267C42.7579 13.6998 43.089 13.9688 43.089 14.3722C43.089 14.7756 42.8241 15.0446 42.4267 15.0446H25.2739C24.9428 15.0446 24.6117 14.7756 24.6117 14.3722C24.6117 13.9688 24.9428 13.6998 25.2739 13.6998ZM36.4663 23.0461H31.3006C28.8502 23.0461 26.7971 21.3651 26.1349 19.0117H41.632C40.9697 21.4324 38.9167 23.0461 36.4663 23.0461ZM42.4267 17.7342H25.2739C24.9428 17.7342 24.6117 17.4652 24.6117 17.0618C24.6117 16.6584 24.8766 16.3894 25.2739 16.3894H42.3605C42.6916 16.3894 43.0228 16.6584 43.0228 17.0618C43.0228 17.4652 42.7579 17.7342 42.4267 17.7342Z" fill="#E7426A"/>
<path d="M5.76611 33.0878L5.76612 33.0879L5.76892 33.0854L8.47236 30.6923L8.47255 30.6922C9.17875 30.0664 10.2668 30.1322 10.8927 30.8392C10.8927 30.8392 10.8927 30.8392 10.8927 30.8392L10.9372 30.8896L11.346 31.3513L11.7133 30.8559C12.5847 29.6806 13.587 28.5747 14.7262 27.6979L14.7264 27.6977C17.3833 25.6503 20.9368 24.6909 23.8226 26.4529C25.6063 27.5433 27.6076 28.4497 29.7174 28.8281L29.7612 28.836H29.8057H35.8688C36.9439 28.836 37.717 29.4508 37.9648 30.4498L38.1609 31.2407L38.7772 30.7077L45.2291 25.1274L45.2292 25.1273C46.1794 24.3051 47.4057 24.4463 48.2233 25.3879C49.0452 26.3445 49.0036 27.6176 48.043 28.4511L37.2987 37.7665L37.2987 37.7665C35.668 39.1806 33.8426 39.912 31.6872 40.014L31.6872 40.014L20.3913 40.5497L19.7007 40.5825L19.9481 41.2281C20.2033 41.8939 20.0207 42.6513 19.485 43.1257L19.485 43.1257L16.7825 45.5195C16.0756 46.1453 14.9881 46.079 14.3621 45.3724L5.62278 35.5048L5.62273 35.5047C5.00135 34.8033 5.06445 33.6997 5.76611 33.0878ZM37.8687 32.0134L37.7992 32.0735L37.7555 32.1546C37.4264 32.7661 36.8157 33.2222 35.8696 33.2222H22.6842C22.5749 33.2222 22.4851 33.1324 22.4851 33.023C22.4851 32.9137 22.5749 32.8238 22.6842 32.8238H35.8696C36.3818 32.8238 36.8354 32.6432 37.1598 32.3036C37.4813 31.9669 37.6392 31.5128 37.6392 31.0287C37.6392 30.5545 37.4875 30.1014 37.1691 29.7624C36.8467 29.4191 36.3917 29.2343 35.8696 29.2343H29.7791L29.705 29.227C27.5511 28.8486 25.5084 27.9446 23.6185 26.7899C20.737 25.0289 17.2927 26.2178 14.9689 28.0083C13.7492 28.9472 12.7295 30.1154 11.8526 31.3343L11.6192 31.6587L11.8842 31.9578L19.0369 40.0335L19.1957 40.2128L19.4349 40.2014L31.6689 39.6211C33.7306 39.5251 35.4854 38.8198 37.0433 37.4687L47.7877 28.1532L47.7881 28.1529C48.1792 27.8131 48.3901 27.3722 48.4024 26.9045C48.4145 26.4442 48.2336 26.0027 47.9263 25.6445L47.9256 25.6437C47.6246 25.2944 47.2261 25.0538 46.778 25.001C46.3226 24.9473 45.8694 25.0945 45.4875 25.424L45.4871 25.4244L37.8687 32.0134ZM6.032 33.3811L6.03063 33.3823C5.51179 33.8457 5.43394 34.64 5.87356 35.1919L5.88167 35.2021L5.8903 35.2118L14.6569 45.1126L14.6572 45.1129C15.1391 45.6562 15.9806 45.7041 16.5223 45.225L16.5226 45.2248L19.2252 42.8309L19.2254 42.8307C19.768 42.3495 19.8182 41.5086 19.3373 40.9661C18.6026 40.1364 17.8676 39.3063 17.1325 38.4761C14.9542 36.0159 12.775 33.5546 10.5982 31.0994C10.1163 30.5538 9.27231 30.5083 8.73214 30.9872C8.73213 30.9872 8.73213 30.9872 8.73212 30.9872L6.032 33.3811Z" fill="#EE3686" stroke="#E7426A"/>
</svg>
