<svg width="124" height="124" viewBox="0 0 124 124" fill="none" xmlns="http://www.w3.org/2000/svg">
<path d="M105.925 105.861C81.725 130.046 42.525 130.046 18.225 105.861C-6.075 81.5757 -6.075 42.3994 18.225 18.214C42.425 -6.07133 81.625 -6.07133 105.925 18.214C130.025 42.3994 130.025 81.5757 105.925 105.861Z" fill="#EE3686"/>
<path d="M32.468 46.8081C32.468 45.9045 32.3844 45.1652 32.3008 44.7545C32.1336 43.7688 31.6319 42.8652 30.7958 42.126C29.9597 41.3867 29.04 41.0581 27.8694 41.0581C26.6989 41.0581 25.6119 41.4688 24.7758 42.2902C23.8561 41.4688 22.8528 41.0581 21.6822 41.0581C20.5953 41.0581 19.5083 41.4688 18.7558 42.126C18.0033 42.7831 17.4181 43.6045 17.1672 44.7545C17.0836 45.2474 17 45.9045 17 46.8081V53.8723C17 54.283 17.3344 54.4473 17.5853 54.4473C18.0033 54.4473 18.1706 54.1187 18.1706 53.8723V46.5616C18.1706 45.2474 18.4214 44.1795 19.0067 43.3581C19.5919 42.4545 20.5117 42.0438 21.7658 42.0438C22.6855 42.0438 23.438 42.3724 24.1069 43.0295C23.5216 44.0152 23.2708 45.0831 23.2708 46.5616V53.7901C23.2708 54.1187 23.5216 54.3651 23.8561 54.3651C24.2741 54.3651 24.4414 54.0366 24.4414 53.7901V46.4795C24.4414 45.4116 24.6086 44.5902 24.8594 44.0152C25.1103 44.6724 25.2775 45.6581 25.2775 46.8081V53.8723C25.2775 54.2009 25.5283 54.4473 25.8627 54.4473C26.2808 54.4473 26.448 54.1187 26.448 53.8723V46.3152C26.448 44.8366 26.1972 43.7688 25.6119 42.9474C26.1972 42.3724 26.9497 42.0438 27.8694 42.0438C28.7055 42.0438 29.458 42.2902 30.0433 42.7831C30.6286 43.1938 31.0466 43.8509 31.2975 44.6724C31.4647 45.1652 31.4647 45.7402 31.4647 46.5616V53.8723C31.4647 54.2009 31.7155 54.4473 32.05 54.4473C32.468 54.4473 32.6352 54.1187 32.6352 53.8723L32.5516 53.4616V46.8081H32.468Z" fill="white"/>
<path d="M46.0134 43.1106C44.6756 41.7963 43.0034 41.1392 41.0803 41.1392C39.1573 41.1392 37.4851 41.7963 36.1473 43.1106C34.8095 44.4248 34.1406 46.0677 34.1406 47.957C34.1406 49.8462 34.8095 51.4891 36.2309 52.8034C37.6523 54.1176 39.3245 54.7748 41.2475 54.7748C42.6689 54.7748 44.0067 54.3641 45.0936 53.6248V53.7891C45.0936 54.3641 45.4281 54.5283 45.6789 54.5283C45.9298 54.5283 46.2642 54.2819 46.2642 53.7891V52.7212C47.602 51.3248 48.2709 49.7641 48.2709 47.957C48.1036 45.9855 47.3511 44.3427 46.0134 43.1106ZM44.9264 48.0391V52.3105C43.7559 53.2962 42.5017 53.7891 41.0803 53.7891C39.4917 53.7891 38.0703 53.2141 36.9834 52.0641C35.8128 50.9962 35.3112 49.682 35.3112 48.0391C35.3112 46.3963 35.8965 45.082 37.067 43.932C38.2376 42.782 39.5753 42.207 41.2475 42.207C42.8362 42.207 44.2575 42.782 45.3445 43.932C46.4314 45.082 47.1003 46.3963 47.1003 47.957C47.1003 49.107 46.7659 50.0927 46.1806 50.9962V48.0391C46.0134 47.2177 44.9264 47.2177 44.9264 48.0391Z" fill="white"/>
<path d="M55.6277 54.7751C57.2163 54.7751 58.7213 54.2823 60.0591 53.2144C60.3935 52.968 60.6443 52.8037 60.8116 52.5573H60.8952V52.4752C60.9788 52.393 60.9788 52.3109 60.9788 52.1466C60.9788 51.9002 60.8116 51.6537 60.4771 51.6537H60.1427L60.0591 51.818V51.9823C59.4738 52.4752 58.8049 52.968 58.136 53.2966C57.3835 53.6251 56.5474 53.8716 55.7949 53.8716C54.1227 53.8716 52.7849 53.2966 51.698 52.1466C50.5274 50.9966 49.9422 49.6823 49.9422 48.0395C49.9422 46.4788 50.5274 45.0824 51.698 44.0145C52.7849 42.8645 54.1227 42.3717 55.7949 42.3717C57.3835 42.3717 58.8049 42.9467 59.9755 44.0967L60.2263 44.2609H60.5607L60.6443 44.1788C60.8116 44.0967 60.8952 43.9324 60.8952 43.7681V43.6038L60.8116 43.5217C60.8116 43.5217 60.8116 43.4395 60.728 43.4395C60.6443 43.3574 60.6443 43.2752 60.5607 43.2752C59.3066 41.961 57.6344 41.2217 55.6277 41.2217C53.7046 41.2217 52.0324 41.8788 50.6946 43.1931C49.3569 44.5074 48.688 46.1502 48.688 48.0395C48.688 49.8466 49.3569 51.4895 50.6946 52.8859C52.116 54.118 53.7883 54.7751 55.6277 54.7751Z" fill="white"/>
<path d="M72.8517 43.1106C71.514 41.7963 69.8418 41.1392 67.9187 41.1392C65.9957 41.1392 64.3234 41.7963 62.9857 43.1106C61.6479 44.4248 60.979 46.0677 60.979 47.957C60.979 49.8462 61.6479 51.4891 62.9857 52.8034C64.407 54.1176 66.0793 54.7748 68.0023 54.7748C69.4237 54.7748 70.7615 54.3641 71.8484 53.6248V53.7891C71.8484 54.3641 72.1829 54.5283 72.4337 54.5283C72.6845 54.5283 73.019 54.2819 73.019 53.7891V52.7212C74.3567 51.3248 75.0256 49.7641 75.0256 47.957C74.942 45.9034 74.2731 44.3427 72.8517 43.1106ZM71.7648 48.0391V52.3105C70.5942 53.2962 69.3401 53.7891 67.9187 53.7891C66.3301 53.7891 64.9087 53.2141 63.7382 52.0641C62.5676 50.9962 62.0659 49.682 62.0659 48.0391C62.0659 46.3963 62.6512 45.082 63.8218 43.932C64.9923 42.782 66.3301 42.207 68.0023 42.207C69.5909 42.207 71.0123 42.782 72.0992 43.932C73.2698 45.082 73.8551 46.3963 73.8551 47.957C73.8551 49.107 73.5206 50.1748 72.9354 51.0784V48.1212C72.8517 47.2177 71.7648 47.2177 71.7648 48.0391Z" fill="white"/>
<path d="M76.6981 54.5286C77.1161 54.5286 77.2833 54.2 77.2833 53.9536V48.6144C77.2833 47.218 77.367 46.3965 77.5342 45.8215C77.785 44.918 78.2867 44.1787 78.9556 43.6037C79.6244 43.0287 80.3769 42.7001 81.2131 42.4537C81.6311 42.4537 81.7983 42.1251 81.7983 41.8787C81.7983 41.468 81.5475 41.3859 81.3803 41.3037H81.2967H81.2131C80.795 41.3037 80.2933 41.468 79.7081 41.7966C78.7047 42.2894 77.8686 42.9466 77.2833 43.8501C77.2833 43.3573 77.2833 42.7001 77.2833 41.9608C77.2833 41.1394 76.1128 41.1394 76.1128 41.9608V53.9536C76.1128 54.2822 76.3636 54.5286 76.6981 54.5286Z" fill="white"/>
<path d="M93.9216 43.1106C92.5838 41.7963 90.9116 41.1392 88.9885 41.1392C87.0655 41.1392 85.3933 41.7963 84.0555 43.1106C82.7177 44.4248 82.0488 46.0677 82.0488 47.957C82.0488 49.8462 82.7177 51.4891 84.0555 52.8034C85.4769 54.1176 87.1491 54.7748 89.0721 54.7748C90.9952 54.7748 92.6674 54.1176 94.0052 52.7212C95.343 51.3248 96.0118 49.682 96.0118 47.7927C96.0118 45.9856 95.3429 44.3427 93.9216 43.1106ZM88.9885 42.207C90.5771 42.207 91.9985 42.782 93.0855 43.932C94.256 45.082 94.8413 46.3963 94.8413 47.957C94.8413 49.5998 94.256 50.9962 93.0018 52.0641C91.9149 53.2141 90.5771 53.7069 88.9049 53.7069C87.3163 53.7069 85.8949 53.1319 84.808 51.9819C83.6374 50.8319 83.0522 49.5177 83.0522 47.957C83.0522 46.3141 83.6374 44.9998 84.808 43.8499C85.8949 42.6999 87.3163 42.207 88.9885 42.207Z" fill="white"/>
<path d="M106.882 44.5894C106.715 43.6036 106.213 42.7822 105.293 42.0429C104.457 41.3858 103.454 40.9751 102.367 40.9751C101.531 40.9751 100.778 41.1394 100.109 41.5501C99.6077 41.8787 99.1061 42.2072 98.7716 42.7001V41.8787C98.7716 41.0572 97.6011 41.0572 97.6011 41.8787V53.8714C97.6011 54.2821 97.9355 54.4464 98.1864 54.4464C98.6044 54.4464 98.7716 54.1179 98.7716 53.8714V47.0536C98.7716 46.3143 98.7716 45.6572 98.8552 45.3286C99.0225 44.3429 99.3569 43.6036 99.9422 43.0287C100.611 42.4537 101.447 42.1251 102.283 42.1251C102.952 42.1251 103.621 42.2894 104.123 42.6179C104.875 43.0287 105.377 43.6858 105.544 44.5072C105.711 45.0001 105.711 45.9036 105.711 47.0536V53.8714C105.711 54.2 105.962 54.4464 106.297 54.4464C106.464 54.4464 106.631 54.3643 106.715 54.2821H106.965V46.4786C107.049 45.7393 106.965 45.0822 106.882 44.5894Z" fill="white"/>
<path d="M43.1699 70.2998C42.5846 70.2998 42.501 70.6284 42.501 70.8748C42.501 71.2855 42.8354 71.4498 43.0863 71.4498C43.7552 71.4498 44.2568 71.6141 44.8421 71.9426C45.929 72.5176 46.5143 73.5033 46.5143 74.7355C46.5143 75.639 46.1799 76.3783 45.511 77.0355C44.8421 77.6926 44.0896 78.0212 43.1699 78.0212C41.8321 78.0212 40.9124 77.4462 40.1599 76.2962C39.9091 75.9676 39.7418 75.4748 39.7418 74.8998C39.7418 74.4891 39.491 74.2426 39.1566 74.2426C38.7385 74.2426 38.5713 74.5712 38.5713 74.8176C38.5713 75.9676 39.073 77.0355 39.9927 77.7747C40.8288 78.5962 41.9157 79.0069 43.0863 79.0069C44.3404 79.0069 45.4274 78.5962 46.2635 77.6926C47.0996 76.8712 47.6013 75.8033 47.6013 74.5712C47.6013 73.3391 47.1832 72.3534 46.3471 71.5319C45.511 70.7927 44.424 70.2998 43.1699 70.2998Z" fill="white"/>
<path d="M42.9193 66.8501C44.0063 66.8501 44.7588 67.2608 45.2604 68.1643C45.3441 68.3286 45.5113 68.6572 45.5949 68.9858C45.5949 69.3965 45.8457 69.6429 46.1802 69.6429C46.5146 69.6429 46.7654 69.3965 46.7654 69.0679C46.7654 68.0822 46.2638 67.2608 45.4277 66.7679C44.6752 66.1108 43.8391 65.7822 42.8357 65.7822C41.8324 65.7822 40.9127 66.1108 40.1602 66.8501C39.4913 67.6715 39.0732 68.4929 39.0732 69.4786C39.0732 70.4643 39.4077 71.3679 40.1602 72.1072C40.8291 72.8465 41.7488 73.2572 42.7521 73.2572C43.1702 73.2572 43.421 73.0107 43.421 72.6822C43.421 72.3536 43.1702 72.1072 42.8357 72.1072C42.0832 72.1072 41.498 71.8607 40.9963 71.3679C40.4946 70.875 40.2438 70.2179 40.2438 69.4786C40.2438 68.7393 40.4946 68.0822 40.9963 67.5894C41.6652 67.0965 42.2505 66.8501 42.9193 66.8501Z" fill="white"/>
<path d="M57.7186 71.2857C57.7186 70.3821 57.635 69.7249 57.5513 69.3142C57.3005 68.2464 56.7988 67.425 56.0463 66.85C55.2102 66.1107 54.3741 65.7821 53.2872 65.7821C52.5347 65.7821 51.7822 65.9464 51.1133 66.3571C50.528 66.6035 50.11 67.0143 49.7755 67.425V62.4964C49.7755 61.675 48.605 61.675 48.605 62.4964V78.1856C48.605 78.5963 48.9394 78.7606 49.1903 78.7606C49.6083 78.7606 49.7755 78.432 49.7755 78.1856V71.6142C49.7755 71.1214 49.7755 70.7107 49.8591 70.3821C49.8591 70.1357 49.8591 69.9714 49.8591 69.8892C50.0264 68.9857 50.3608 68.2464 50.9461 67.6714C51.615 67.0964 52.2839 66.85 53.2872 66.85C53.9561 66.85 54.625 67.0143 55.1266 67.3428C55.8791 67.8357 56.2972 68.4107 56.4644 69.15C56.6316 69.6428 56.6316 70.4642 56.6316 71.6142V78.1856C56.6316 78.5142 56.8825 78.7606 57.2169 78.7606C57.635 78.7606 57.8022 78.432 57.8022 78.1856L57.7186 77.7749V71.2857Z" fill="white"/>
<path d="M70.5945 67.6711C69.2567 66.3568 67.6681 65.6997 65.8286 65.6997C63.9892 65.6997 62.317 66.3568 61.0628 67.6711C59.725 68.9854 59.0562 70.5461 59.0562 72.3532C59.0562 74.1604 59.725 75.8032 61.0628 77.0353C62.4006 78.3496 63.9892 79.0067 65.9122 79.0067C67.8353 79.0067 69.4239 78.3496 70.6781 77.0353C72.0158 75.7211 72.6847 74.1604 72.6847 72.2711C72.6847 70.3818 72.0158 68.9033 70.5945 67.6711ZM61.8153 76.2961C60.7284 75.2282 60.1431 73.9139 60.1431 72.3532C60.1431 70.7925 60.7284 69.4783 61.8153 68.3283C62.9023 67.2604 64.24 66.6854 65.9122 66.6854C67.4172 66.6854 68.8386 67.2604 69.9256 68.3283C71.0125 69.3961 71.5978 70.7104 71.5978 72.2711C71.5978 73.8318 71.0125 75.2282 69.842 76.2961C68.755 77.3639 67.4172 77.9389 65.8286 77.9389C64.3236 77.9389 62.9023 77.3639 61.8153 76.2961Z" fill="white"/>
<path d="M80.544 65.6997C78.6209 65.6997 77.0323 66.3568 75.7781 67.6711C74.524 68.9854 73.7715 70.5461 73.7715 72.3532C73.7715 74.1604 74.4404 75.7211 75.6945 77.0353V82.3746C75.6945 82.7031 75.9454 82.9496 76.2798 82.9496C76.6979 82.9496 76.8651 82.621 76.8651 82.3746V78.021C77.952 78.7603 79.2062 79.0889 80.544 79.0889C82.467 79.0889 84.1392 78.4317 85.3934 77.1996C86.7312 75.8853 87.4837 74.4068 87.4837 72.5175C87.4837 70.6282 86.7312 69.0675 85.3934 67.7533C84.0556 66.3568 82.467 65.6997 80.544 65.6997ZM76.2798 71.7782C76.029 71.7782 75.6945 72.0247 75.6945 72.4354V75.2282C75.1929 74.4068 74.942 73.4211 74.942 72.3532C74.942 70.8747 75.5273 69.4783 76.6143 68.4104C77.7848 67.2604 79.1226 66.7676 80.7112 66.7676C82.2998 66.7676 83.6376 67.3426 84.8081 68.4104C85.8951 69.4783 86.4803 70.7925 86.4803 72.4354C86.4803 73.9961 85.8951 75.3103 84.7245 76.3782C83.6376 77.446 82.2998 78.021 80.7112 78.021C79.2898 78.021 78.0356 77.5282 76.9487 76.5425V72.4354C76.8651 71.8604 76.5306 71.7782 76.2798 71.7782Z" fill="white"/>
</svg>
