<svg width="119.394531" height="38.060547" viewBox="0 0 119.395 38.0605" fill="none" xmlns="http://www.w3.org/2000/svg" xmlns:xlink="http://www.w3.org/1999/xlink">
	<desc>
			Created with Pixso.
	</desc>
	<defs/>
	<path id="Vector 1" d="M29.86 0.04Q28.34 -0.04 26.75 0.03Q26.33 0.05 26.05 0.35Q25.77 0.66 25.79 1.07Q25.81 1.48 26.11 1.76Q26.42 2.04 26.83 2.03Q28.33 1.96 29.76 2.03Q30.17 2.06 30.48 1.78Q30.79 1.5 30.81 1.09Q30.83 0.67 30.55 0.37Q30.27 0.06 29.86 0.04ZM23.55 0.31Q21.99 0.52 20.41 0.86Q20.01 0.94 19.78 1.29Q19.56 1.64 19.65 2.04Q19.73 2.45 20.08 2.67Q20.43 2.9 20.83 2.81Q22.33 2.49 23.82 2.29Q24.23 2.24 24.48 1.91Q24.73 1.58 24.68 1.17Q24.62 0.76 24.29 0.51Q23.96 0.26 23.55 0.31ZM36.19 1.13Q34.75 0.67 33.15 0.4Q32.74 0.33 32.4 0.56Q32.07 0.8 32 1.21Q31.92 1.62 32.16 1.96Q32.4 2.3 32.81 2.37Q34.28 2.62 35.58 3.03Q35.98 3.16 36.34 2.97Q36.71 2.78 36.84 2.38Q36.96 1.99 36.77 1.62Q36.58 1.25 36.19 1.13ZM15.04 2.4Q14.68 2.53 14.33 2.67Q13.94 2.82 13.77 3.2Q13.6 3.58 13.75 3.96Q13.9 4.35 14.28 4.52Q14.66 4.69 15.04 4.54Q15.36 4.41 15.68 4.3Q16.79 3.89 17.93 3.55Q18.33 3.44 18.52 3.07Q18.72 2.71 18.6 2.31Q18.49 1.91 18.12 1.72Q17.76 1.52 17.36 1.64Q16.19 1.99 15.04 2.4ZM41.94 4.35Q40.8 3.28 39.31 2.45Q38.94 2.25 38.54 2.37Q38.15 2.48 37.95 2.84Q37.75 3.21 37.86 3.6Q37.98 4 38.34 4.2Q39.61 4.91 40.57 5.81Q40.87 6.09 41.28 6.08Q41.7 6.07 41.98 5.77Q42.26 5.46 42.25 5.05Q42.24 4.64 41.94 4.35ZM69.37 3.46Q67.81 3.35 66.25 3.31Q65.83 3.31 65.53 3.59Q65.23 3.88 65.22 4.29Q65.22 4.71 65.5 5.01Q65.79 5.31 66.2 5.31Q67.71 5.35 69.22 5.46Q69.64 5.49 69.95 5.22Q70.26 4.95 70.29 4.53Q70.32 4.12 70.05 3.81Q69.78 3.49 69.37 3.46ZM63.14 3.33Q61.6 3.38 60.07 3.51Q59.66 3.54 59.39 3.86Q59.13 4.17 59.16 4.59Q59.2 5 59.51 5.27Q59.83 5.53 60.24 5.5Q61.71 5.37 63.2 5.33Q63.62 5.32 63.9 5.01Q64.19 4.71 64.17 4.3Q64.16 3.88 63.86 3.6Q63.56 3.32 63.14 3.33ZM73.85 3.96Q73.14 3.85 72.43 3.77Q72.02 3.72 71.7 3.97Q71.37 4.22 71.32 4.64Q71.27 5.05 71.52 5.37Q71.78 5.7 72.19 5.75Q72.89 5.84 73.59 5.94Q74.37 6.06 75.14 6.19Q75.55 6.27 75.89 6.03Q76.23 5.79 76.3 5.38Q76.37 4.97 76.13 4.64Q75.9 4.3 75.49 4.22Q74.67 4.08 73.85 3.96ZM11.43 3.92Q9.99 4.6 8.62 5.4Q8.26 5.6 8.16 6Q8.05 6.4 8.26 6.76Q8.47 7.12 8.87 7.23Q9.27 7.33 9.63 7.12Q10.92 6.37 12.29 5.72Q12.66 5.54 12.8 5.15Q12.94 4.76 12.76 4.39Q12.58 4.01 12.19 3.88Q11.8 3.74 11.43 3.92ZM56.99 3.85Q55.43 4.07 53.9 4.38Q53.49 4.46 53.26 4.81Q53.04 5.16 53.12 5.56Q53.2 5.97 53.54 6.2Q53.89 6.43 54.3 6.34Q55.76 6.05 57.27 5.83Q57.68 5.77 57.93 5.44Q58.18 5.11 58.12 4.7Q58.07 4.29 57.74 4.04Q57.4 3.79 56.99 3.85ZM81.54 5.61Q80.04 5.19 78.53 4.84Q78.12 4.75 77.77 4.97Q77.42 5.19 77.33 5.59Q77.24 5.99 77.46 6.35Q77.68 6.7 78.08 6.79Q79.55 7.12 80.99 7.53Q81.39 7.65 81.75 7.44Q82.11 7.24 82.23 6.84Q82.34 6.45 82.14 6.08Q81.93 5.72 81.54 5.61ZM50.88 5.09Q49.39 5.49 47.95 5.97Q47.56 6.11 47.38 6.48Q47.19 6.85 47.33 7.24Q47.46 7.63 47.83 7.82Q48.2 8 48.59 7.87Q49.97 7.4 51.4 7.02Q51.8 6.91 52 6.56Q52.21 6.2 52.11 5.8Q52 5.4 51.64 5.19Q51.28 4.98 50.88 5.09ZM87.39 7.6Q85.96 7.03 84.49 6.53Q84.09 6.4 83.72 6.58Q83.35 6.76 83.22 7.15Q83.08 7.55 83.27 7.92Q83.45 8.29 83.84 8.42Q85.26 8.91 86.65 9.46Q87.03 9.61 87.41 9.45Q87.79 9.29 87.95 8.9Q88.1 8.52 87.94 8.14Q87.77 7.76 87.39 7.6ZM44.2 7.44Q44.11 7.26 44.02 7.08Q43.83 6.71 43.43 6.59Q43.04 6.46 42.67 6.65Q42.3 6.85 42.18 7.24Q42.06 7.64 42.25 8Q42.32 8.15 42.39 8.29Q42.27 8.35 42.16 8.41Q41.79 8.6 41.66 9Q41.53 9.39 41.72 9.76Q41.91 10.13 42.31 10.26Q42.67 10.37 43.01 10.22Q43.04 10.41 43.07 10.6Q43.13 11.01 43.46 11.26Q43.79 11.51 44.2 11.46Q44.61 11.4 44.86 11.07Q45.11 10.74 45.05 10.33Q44.98 9.82 44.86 9.33Q45.31 9.13 45.77 8.93Q46.16 8.77 46.31 8.39Q46.47 8.01 46.31 7.63Q46.15 7.24 45.76 7.09Q45.38 6.93 45 7.09Q44.59 7.26 44.2 7.44ZM5.94 7.11Q4.63 8.03 3.42 9.04Q3.11 9.31 3.07 9.72Q3.04 10.13 3.31 10.45Q3.57 10.77 3.99 10.8Q4.4 10.84 4.72 10.57Q5.85 9.62 7.08 8.75Q7.42 8.51 7.5 8.1Q7.57 7.69 7.33 7.35Q7.09 7.02 6.68 6.94Q6.28 6.87 5.94 7.11ZM93 10.22Q91.65 9.49 90.23 8.84Q89.86 8.66 89.47 8.8Q89.08 8.94 88.91 9.32Q88.73 9.69 88.87 10.08Q89.01 10.47 89.39 10.65Q90.75 11.28 92.06 11.99Q92.42 12.18 92.82 12.06Q93.22 11.94 93.41 11.58Q93.61 11.21 93.49 10.82Q93.37 10.42 93 10.22ZM38.18 10.77Q36.9 11.64 35.82 12.64Q35.52 12.93 35.5 13.34Q35.49 13.75 35.77 14.06Q36.05 14.36 36.46 14.38Q36.88 14.39 37.18 14.11Q38.15 13.21 39.31 12.42Q39.9 12.02 40.52 11.63L39.46 9.94Q38.81 10.34 38.18 10.77ZM1.09 11.21Q0.52 11.79 0 12.39L1.49 13.71Q1.99 13.15 2.52 12.61Q2.81 12.31 2.8 11.9Q2.8 11.49 2.5 11.2Q2.21 10.91 1.79 10.91Q1.38 10.92 1.09 11.21ZM98.29 13.47Q97.02 12.58 95.69 11.77Q95.34 11.55 94.94 11.65Q94.54 11.74 94.32 12.1Q94.1 12.45 94.2 12.85Q94.29 13.25 94.65 13.47Q95.93 14.26 97.14 15.11Q97.48 15.35 97.89 15.27Q98.3 15.2 98.53 14.86Q98.77 14.52 98.7 14.11Q98.63 13.71 98.29 13.47ZM44.71 15.34Q44.93 14.48 45.04 13.65Q45.09 13.24 44.84 12.91Q44.59 12.58 44.18 12.53Q43.77 12.47 43.44 12.73Q43.11 12.98 43.06 13.39Q42.96 14.1 42.77 14.85Q42.55 15.75 42.24 16.52Q42.08 16.9 42.25 17.28Q42.41 17.66 42.79 17.82Q43.18 17.97 43.56 17.81Q43.94 17.65 44.09 17.27Q44.46 16.37 44.71 15.34ZM103.14 17.34Q102 16.3 100.78 15.33Q100.45 15.07 100.04 15.12Q99.63 15.16 99.37 15.49Q99.11 15.81 99.16 16.22Q99.2 16.63 99.53 16.89Q100.7 17.83 101.79 18.82Q102.1 19.1 102.51 19.08Q102.93 19.06 103.2 18.75Q103.48 18.45 103.46 18.03Q103.44 17.62 103.14 17.34ZM33.43 21.68Q34.02 22.51 35.47 22.8Q35.88 22.89 36.22 22.66Q36.57 22.43 36.65 22.02Q36.74 21.62 36.5 21.27Q36.28 20.93 35.87 20.84Q35.19 20.71 35.06 20.52Q34.61 19.89 34.49 19.2Q34.43 18.82 34.47 18.42Q34.51 18 34.25 17.68Q33.99 17.36 33.58 17.32Q33.17 17.27 32.85 17.54Q32.52 17.8 32.48 18.21Q32.4 18.98 32.55 19.71Q32.76 20.74 33.43 21.68ZM40.11 22.04Q41.37 21.36 42.36 20.19Q42.63 19.88 42.6 19.47Q42.57 19.05 42.25 18.78Q41.93 18.51 41.52 18.55Q41.11 18.58 40.84 18.89Q40.01 19.87 38.95 20.39Q38.76 20.48 38.56 20.56Q38.17 20.71 38 21.09Q37.84 21.47 37.99 21.86Q38.14 22.24 38.52 22.41Q38.91 22.57 39.29 22.42Q39.71 22.25 40.11 22.04ZM107.43 21.81Q106.44 20.62 105.35 19.49Q105.07 19.2 104.65 19.19Q104.24 19.18 103.94 19.47Q103.64 19.76 103.64 20.17Q103.63 20.58 103.92 20.88Q104.95 21.96 105.9 23.09Q106.17 23.41 106.58 23.44Q107 23.48 107.31 23.21Q107.63 22.95 107.67 22.53Q107.7 22.12 107.43 21.81ZM111.09 26.83Q110.27 25.52 109.36 24.27Q109.12 23.94 108.71 23.87Q108.3 23.81 107.97 24.05Q107.63 24.29 107.57 24.7Q107.5 25.11 107.75 25.45Q108.62 26.64 109.4 27.89Q109.62 28.24 110.02 28.34Q110.42 28.43 110.77 28.21Q111.13 27.99 111.22 27.59Q111.31 27.18 111.09 26.83ZM114.29 37.94L107.17 34.3C106.67 34.04 106.48 33.45 106.73 32.95C106.99 32.46 107.58 32.26 108.08 32.52L113.3 35.19Q113.32 35.17 113.33 35.14Q113.5 34.76 113.89 34.62Q114.28 34.48 114.66 34.66Q114.74 34.69 114.8 34.74L117.5 29.48C117.75 28.98 118.35 28.79 118.84 29.04C119.34 29.3 119.53 29.89 119.28 30.39L115.63 37.51Q115.63 37.52 115.62 37.53Q115.52 37.73 115.34 37.86L115.34 37.86C115.17 37.99 114.95 38.06 114.73 38.06Q114.51 38.05 114.3 37.95Q114.29 37.95 114.29 37.94L114.29 37.94ZM113.99 32.28Q113.35 30.86 112.63 29.49Q112.43 29.12 112.03 29Q111.64 28.88 111.27 29.07Q110.91 29.27 110.79 29.66Q110.67 30.06 110.86 30.43Q111.56 31.74 112.16 33.1Q112.33 33.47 112.72 33.62Q113.1 33.77 113.48 33.6Q113.86 33.43 114.01 33.05Q114.16 32.66 113.99 32.28Z" fill="#FFD6D6" fill-opacity="1.000000" fill-rule="evenodd"/>
</svg>
