<svg width="54.000000" height="54.000000" viewBox="0 0 54 54" fill="none" xmlns="http://www.w3.org/2000/svg" xmlns:xlink="http://www.w3.org/1999/xlink">
	<desc>
			Created with Pixso.
	</desc>
	<defs/>
	<rect id="Rectangle 399" width="54.000000" height="54.000000" fill="#C4C4C4" fill-opacity="0"/>
	<path id="Vector" d="M50.32 27.31L44.06 19.87C43.9 19.72 43.67 19.56 43.43 19.56L34.82 19.56L34.82 32.08L3.52 32.08L3.52 37.56C3.52 38.03 3.83 38.34 4.3 38.34L8.84 38.34C8.76 38.58 8.76 38.89 8.76 39.13C8.76 41.32 10.48 43.04 12.67 43.04C14.87 43.04 16.59 41.32 16.59 39.13C16.59 38.89 16.59 38.58 16.51 38.34L38.03 38.34C37.95 38.58 37.95 38.89 37.95 39.13C37.95 41.32 39.67 43.04 41.87 43.04C44.06 43.04 45.78 41.32 45.78 39.13C45.78 38.89 45.78 38.58 45.7 38.34L49.69 38.34C50.16 38.34 50.48 38.03 50.48 37.56L50.48 27.86L50.48 27.78C50.48 27.62 50.4 27.47 50.32 27.31ZM48.05 27L42.65 27L42.65 24.26L45.7 24.26L48.05 27ZM12.67 41.48C11.34 41.48 10.33 40.46 10.33 39.13C10.33 38.74 10.41 38.34 10.64 37.95C11.03 37.25 11.81 36.78 12.67 36.78C12.91 36.78 13.07 36.78 13.3 36.86C13.69 36.94 14.08 37.17 14.32 37.48C14.48 37.64 14.55 37.8 14.71 37.95C14.94 38.34 15.02 38.74 15.02 39.13C15.02 40.46 13.93 41.48 12.67 41.48ZM41.87 41.48C40.54 41.48 39.52 40.46 39.52 39.13C39.52 38.74 39.6 38.34 39.83 37.95C40.22 37.25 41 36.78 41.87 36.78C42.1 36.78 42.26 36.78 42.49 36.86C42.88 36.94 43.27 37.17 43.51 37.48C43.67 37.64 43.75 37.8 43.9 37.95C44.14 38.34 44.21 38.74 44.21 39.13C44.21 40.46 43.2 41.48 41.87 41.48ZM48.91 36.78L45 36.78C45 36.7 44.92 36.7 44.92 36.62C44.84 36.54 44.76 36.47 44.68 36.39C44.61 36.31 44.61 36.31 44.53 36.23C44.45 36.15 44.37 36.07 44.29 36.07C44.21 36 44.21 36 44.14 36C44.06 35.92 43.98 35.92 43.9 35.84C43.82 35.84 43.82 35.76 43.75 35.76C43.67 35.68 43.59 35.68 43.51 35.61C43.43 35.61 43.35 35.53 43.35 35.53C43.27 35.53 43.2 35.45 43.04 35.45C42.96 35.45 42.88 35.45 42.88 35.37C42.81 35.37 42.65 35.29 42.57 35.29C42.49 35.29 42.49 35.29 42.41 35.29C42.26 35.29 42.1 35.29 41.94 35.29C41.79 35.29 41.63 35.29 41.48 35.29C41.4 35.29 41.4 35.29 41.32 35.29C41.24 35.29 41.08 35.29 41 35.37C40.93 35.37 40.85 35.37 40.85 35.45C40.77 35.45 40.69 35.53 40.54 35.53C40.46 35.53 40.38 35.61 40.38 35.61C40.3 35.68 40.22 35.68 40.15 35.76C40.07 35.76 40.07 35.84 39.99 35.84C39.91 35.92 39.83 35.92 39.75 36C39.67 36 39.67 36.07 39.6 36.07C39.52 36.15 39.44 36.23 39.36 36.23C39.28 36.31 39.28 36.31 39.21 36.39C39.13 36.47 39.05 36.54 38.97 36.62C38.97 36.7 38.89 36.7 38.89 36.78L15.81 36.78C15.81 36.7 15.73 36.7 15.73 36.62C15.65 36.54 15.57 36.47 15.49 36.39C15.41 36.31 15.41 36.31 15.34 36.23C15.26 36.15 15.18 36.07 15.1 36.07C15.02 36 15.02 36 14.94 36C14.87 35.92 14.79 35.92 14.71 35.84C14.63 35.84 14.63 35.76 14.55 35.76C14.48 35.68 14.4 35.68 14.32 35.61C14.24 35.61 14.16 35.53 14.16 35.53C14.08 35.53 14 35.45 13.85 35.45C13.77 35.45 13.69 35.45 13.69 35.37C13.61 35.37 13.46 35.29 13.38 35.29C13.3 35.29 13.3 35.29 13.22 35.29C13.07 35.29 12.91 35.29 12.75 35.29C12.6 35.29 12.44 35.29 12.28 35.29C12.21 35.29 12.21 35.29 12.13 35.29C12.05 35.29 11.89 35.29 11.81 35.37C11.74 35.37 11.66 35.37 11.66 35.45C11.58 35.45 11.5 35.53 11.42 35.53C11.34 35.53 11.27 35.61 11.19 35.61C11.11 35.61 11.03 35.68 10.95 35.68C10.88 35.68 10.8 35.76 10.72 35.76C10.64 35.84 10.56 35.84 10.48 35.92C10.41 36 10.33 36 10.33 36.07C10.25 36.15 10.25 36.15 10.17 36.23C10.09 36.31 10.01 36.31 10.01 36.39C9.78 36.47 9.78 36.54 9.7 36.62C9.62 36.7 9.62 36.78 9.54 36.78L5.08 36.78L5.08 33.65L35.61 33.65C36.08 33.65 36.39 33.34 36.39 32.87L36.39 21.13L43.04 21.13L44.37 22.69L41.87 22.69C41.4 22.69 41.08 23.01 41.08 23.48L41.08 27.78C41.08 28.25 41.4 28.56 41.87 28.56L48.91 28.56L48.91 36.78Z" fill="#E7426A" fill-opacity="1.000000" fill-rule="nonzero"/>
	<path id="Vector" d="M30.29 16.9C29.58 13.22 26.37 10.56 22.54 10.56L16.43 10.56C12.68 10.56 9.47 13.22 8.68 16.9C7.75 17.21 7.04 18.07 7.04 19.09C7.04 19.72 7.28 20.27 7.67 20.66C7.28 21.05 7.04 21.6 7.04 22.22C7.04 23.24 7.75 24.18 8.68 24.41C9.39 28.09 12.6 30.75 16.43 30.75L22.54 30.75C26.29 30.75 29.5 28.09 30.29 24.41C31.22 24.1 31.93 23.24 31.93 22.22C31.93 21.6 31.69 21.05 31.3 20.66C31.69 20.27 31.93 19.72 31.93 19.09C32.01 18.07 31.3 17.21 30.29 16.9ZM16.43 12.13L22.54 12.13C25.43 12.13 27.86 14.08 28.64 16.82L28.33 16.82L28.17 16.67C27.86 16.2 27.31 16.04 26.76 16.04L26.29 16.04C25.75 16.04 25.2 16.27 24.81 16.67C24.73 16.74 24.57 16.82 24.41 16.82L23.95 16.82C23.79 16.82 23.63 16.74 23.56 16.67C23.16 16.2 22.62 16.04 22.07 16.04L21.6 16.04C21.05 16.04 20.5 16.27 20.11 16.67C20.03 16.74 19.88 16.82 19.72 16.82L19.25 16.82C19.09 16.82 18.94 16.74 18.86 16.67C18.55 16.2 18 16.04 17.45 16.04L16.98 16.04C16.43 16.04 15.89 16.27 15.5 16.67C15.41 16.74 15.26 16.82 15.1 16.82L14.63 16.82C14.48 16.82 14.32 16.74 14.24 16.67C13.85 16.2 13.3 16.04 12.75 16.04L12.29 16.04C11.74 16.04 11.19 16.27 10.8 16.67L10.64 16.74L10.41 16.74C11.11 14.08 13.62 12.13 16.43 12.13ZM9.39 18.31L11.27 18.31L11.89 17.68C12.05 17.6 12.13 17.53 12.29 17.53L12.75 17.53C12.91 17.53 13.07 17.6 13.15 17.68C13.54 18.07 14.08 18.31 14.63 18.31L15.1 18.31C15.65 18.31 16.2 18.07 16.59 17.68C16.67 17.6 16.83 17.53 16.98 17.53L17.45 17.53C17.61 17.53 17.76 17.6 17.84 17.68C18.23 18.07 18.78 18.31 19.33 18.31L19.8 18.31C20.35 18.31 20.89 18.07 21.29 17.68C21.36 17.6 21.52 17.53 21.6 17.53L22.07 17.53C22.22 17.53 22.38 17.6 22.46 17.68C22.85 18.07 23.4 18.31 23.95 18.31L24.41 18.31C24.96 18.31 25.51 18.07 25.9 17.68C25.98 17.6 26.14 17.53 26.29 17.53L26.76 17.53C26.92 17.53 27.08 17.6 27.16 17.68L27.78 18.31L29.66 18.31C30.05 18.31 30.44 18.62 30.44 19.09C30.44 19.56 30.13 19.87 29.66 19.87L9.39 19.87C9 19.87 8.61 19.56 8.61 19.09C8.61 18.62 9 18.31 9.39 18.31ZM22.62 29.19L16.51 29.19C13.62 29.19 11.19 27.23 10.41 24.49L28.72 24.49C27.94 27.31 25.51 29.19 22.62 29.19ZM29.66 23L9.39 23C9 23 8.61 22.69 8.61 22.22C8.61 21.75 8.92 21.44 9.39 21.44L29.58 21.44C29.97 21.44 30.36 21.75 30.36 22.22C30.36 22.69 30.05 23 29.66 23Z" fill="#E7426A" fill-opacity="1.000000" fill-rule="nonzero"/>
</svg>
