<svg width="54.000000" height="54.000000" viewBox="0 0 54 54" fill="none" xmlns="http://www.w3.org/2000/svg" xmlns:xlink="http://www.w3.org/1999/xlink">
	<desc>
			Created with Pixso.
	</desc>
	<defs/>
	<rect id="Rectangle 400" width="54.000000" height="54.000000" fill="#C4C4C4" fill-opacity="0"/>
	<path id="Vector" d="M42.95 12.48C42.36 9.32 39.64 7.04 36.4 7.04L31.23 7.04C28.05 7.04 25.33 9.32 24.67 12.48C23.88 12.75 23.28 13.49 23.28 14.37C23.28 14.9 23.48 15.38 23.81 15.71C23.48 16.05 23.28 16.52 23.28 17.06C23.28 17.93 23.88 18.74 24.67 18.94C25.27 22.1 27.98 24.39 31.23 24.39L36.4 24.39C39.57 24.39 42.29 22.1 42.95 18.94C43.75 18.67 44.34 17.93 44.34 17.06C44.34 16.52 44.14 16.05 43.81 15.71C44.14 15.38 44.34 14.9 44.34 14.37C44.41 13.49 43.81 12.75 42.95 12.48ZM31.23 8.38L36.4 8.38C38.84 8.38 40.9 10.06 41.56 12.42L41.3 12.42L41.16 12.28C40.9 11.88 40.43 11.74 39.97 11.74L39.57 11.74C39.11 11.74 38.65 11.95 38.32 12.28C38.25 12.35 38.12 12.42 37.99 12.42L37.59 12.42C37.45 12.42 37.32 12.35 37.26 12.28C36.92 11.88 36.46 11.74 36 11.74L35.6 11.74C35.14 11.74 34.67 11.95 34.34 12.28C34.28 12.35 34.14 12.42 34.01 12.42L33.61 12.42C33.48 12.42 33.35 12.35 33.28 12.28C33.02 11.88 32.55 11.74 32.09 11.74L31.69 11.74C31.23 11.74 30.77 11.95 30.43 12.28C30.37 12.35 30.24 12.42 30.1 12.42L29.71 12.42C29.57 12.42 29.44 12.35 29.38 12.28C29.04 11.88 28.58 11.74 28.12 11.74L27.72 11.74C27.25 11.74 26.79 11.95 26.46 12.28L26.33 12.35L26.13 12.35C26.73 10.06 28.84 8.38 31.23 8.38ZM25.27 13.69L26.86 13.69L27.39 13.16C27.52 13.09 27.59 13.02 27.72 13.02L28.12 13.02C28.25 13.02 28.38 13.09 28.45 13.16C28.78 13.49 29.24 13.69 29.71 13.69L30.1 13.69C30.57 13.69 31.03 13.49 31.36 13.16C31.43 13.09 31.56 13.02 31.69 13.02L32.09 13.02C32.22 13.02 32.35 13.09 32.42 13.16C32.75 13.49 33.22 13.69 33.68 13.69L34.08 13.69C34.54 13.69 35 13.49 35.33 13.16C35.4 13.09 35.53 13.02 35.6 13.02L36 13.02C36.13 13.02 36.26 13.09 36.33 13.16C36.66 13.49 37.12 13.69 37.59 13.69L37.99 13.69C38.45 13.69 38.91 13.49 39.24 13.16C39.31 13.09 39.44 13.02 39.57 13.02L39.97 13.02C40.1 13.02 40.24 13.09 40.3 13.16L40.83 13.69L42.42 13.69C42.75 13.69 43.08 13.96 43.08 14.37C43.08 14.77 42.82 15.04 42.42 15.04L25.27 15.04C24.94 15.04 24.61 14.77 24.61 14.37C24.61 13.96 24.94 13.69 25.27 13.69ZM36.46 23.04L31.3 23.04C28.84 23.04 26.79 21.36 26.13 19.01L41.63 19.01C40.97 21.43 38.91 23.04 36.46 23.04ZM42.42 17.73L25.27 17.73C24.94 17.73 24.61 17.46 24.61 17.06C24.61 16.65 24.87 16.38 25.27 16.38L42.36 16.38C42.69 16.38 43.02 16.65 43.02 17.06C43.02 17.46 42.75 17.73 42.42 17.73Z" fill="#E7426A" fill-opacity="1.000000" fill-rule="nonzero"/>
	<path id="Vector" d="M5.43 32.71L8.14 30.31C9.05 29.5 10.45 29.59 11.26 30.5L11.31 30.55C12.2 29.35 13.23 28.21 14.42 27.3C17.16 25.19 20.94 24.11 24.08 26.02C25.83 27.09 27.77 27.97 29.8 28.33L35.86 28.33C37.16 28.33 38.14 29.1 38.44 30.32L44.9 24.74C46.08 23.73 47.61 23.92 48.6 25.06C49.58 26.2 49.55 27.8 48.37 28.82L37.62 38.14C35.91 39.63 33.97 40.4 31.71 40.51L20.41 41.04C20.74 41.9 20.5 42.88 19.81 43.5L17.11 45.89C16.19 46.7 14.79 46.61 13.98 45.7L5.24 35.83C4.44 34.93 4.52 33.5 5.43 32.71ZM38.19 32.39C37.78 33.15 37 33.72 35.86 33.72L22.68 33.72C22.29 33.72 21.98 33.4 21.98 33.02C21.98 32.63 22.29 32.32 22.68 32.32L35.86 32.32C36.65 32.32 37.13 31.78 37.13 31.02C37.13 30.29 36.66 29.73 35.86 29.73L29.75 29.73L29.63 29.72C27.39 29.33 25.28 28.39 23.35 27.21C20.74 25.61 17.53 26.66 15.27 28.4C14.1 29.3 13.11 30.43 12.25 31.62L19.41 39.7L31.64 39.12C33.59 39.03 35.24 38.36 36.71 37.09L47.46 27.77C48.04 27.26 48.02 26.52 47.54 25.97C47.07 25.42 46.38 25.3 45.81 25.8L38.19 32.39ZM9.06 31.36L6.36 33.75C6.03 34.04 5.99 34.53 6.26 34.88L15.03 44.78C15.33 45.11 15.85 45.14 16.19 44.85L18.89 42.45C19.23 42.15 19.26 41.63 18.96 41.29C16.05 38 13.13 34.71 10.22 31.43C9.92 31.09 9.39 31.06 9.06 31.36Z" fill="#EE3686" fill-opacity="1.000000" fill-rule="nonzero"/>
	<path id="Vector" d="M10.51 29.95C9.74 29.61 8.81 29.72 8.14 30.31L5.43 32.71C4.52 33.5 4.44 34.93 5.24 35.83L13.98 45.7C14.79 46.61 16.19 46.7 17.11 45.89L19.81 43.5C20.24 43.11 20.5 42.59 20.55 42.04C20.58 41.71 20.53 41.37 20.41 41.04L21.45 41L31.71 40.51C33.97 40.4 35.91 39.63 37.62 38.14L48.37 28.82C49.55 27.8 49.58 26.2 48.6 25.06C47.61 23.92 46.08 23.73 44.9 24.74L39.27 29.61L38.44 30.32C38.36 29.97 38.21 29.65 38.01 29.37C37.54 28.72 36.78 28.33 35.86 28.33L29.8 28.33C27.77 27.97 25.83 27.09 24.08 26.02C20.94 24.11 17.16 25.19 14.42 27.3C13.5 28 12.67 28.85 11.93 29.75C11.72 30.02 11.51 30.28 11.31 30.55L11.26 30.5C11.05 30.26 10.79 30.07 10.51 29.95ZM29.75 29.73L29.63 29.72C27.39 29.33 25.28 28.39 23.35 27.21C20.74 25.61 17.53 26.66 15.27 28.4C14.1 29.3 13.11 30.43 12.25 31.62L19.41 39.7L31.64 39.12C33.59 39.03 35.24 38.36 36.71 37.09L47.46 27.77C48.04 27.26 48.02 26.52 47.54 25.97C47.07 25.42 46.38 25.3 45.81 25.8L38.19 32.39C37.78 33.15 37 33.72 35.86 33.72L22.68 33.72C22.29 33.72 21.98 33.4 21.98 33.02C21.98 32.63 22.29 32.32 22.68 32.32L35.86 32.32C36.65 32.32 37.13 31.78 37.13 31.02C37.13 30.29 36.66 29.73 35.86 29.73L29.75 29.73ZM9.06 31.36L6.36 33.75C6.03 34.04 5.99 34.53 6.26 34.88L15.03 44.78C15.33 45.11 15.85 45.14 16.19 44.85L18.89 42.45C19.23 42.15 19.26 41.63 18.96 41.29C16.05 38 13.13 34.71 10.22 31.43C9.92 31.09 9.39 31.06 9.06 31.36Z" fill="#E7426A" fill-opacity="1.000000" fill-rule="evenodd"/>
</svg>
