<svg width="45" height="17" viewBox="0 0 45 17" fill="none" xmlns="http://www.w3.org/2000/svg">
    <path d="M35.259 17H10.031C4.76357 17 0.512695 13.2039 0.512695 8.5C0.512695 3.79612 4.76357 0 10.031 0H35.259C40.5264 0 44.7772 3.79612 44.7772 8.5C44.7772 13.2039 40.5264 17 35.259 17Z" fill="#6DCBBA"/>
    <path d="M7.86889 6.61C7.74422 6.654 7.52056 6.71267 7.19789 6.786C6.87522 6.852 6.62222 6.896 6.43889 6.918L6.31789 6.148C6.71389 6.06733 7.12456 5.92433 7.54989 5.719C7.98256 5.50633 8.33456 5.28633 8.60589 5.059H8.61689L9.48589 5.18V11.23L10.7399 11.351V12H6.54889V11.351L7.86889 11.241V6.61ZM14.458 12.11C13.5193 12.11 12.8006 11.7983 12.302 11.175C11.8106 10.5443 11.565 9.69 11.565 8.612C11.565 7.84933 11.708 7.204 11.994 6.676C12.28 6.14067 12.6576 5.741 13.127 5.477C13.6036 5.20567 14.1316 5.07 14.711 5.07C15.657 5.07 16.3683 5.37067 16.845 5.972C17.3216 6.566 17.56 7.40933 17.56 8.502C17.56 9.25733 17.4206 9.91 17.142 10.46C16.8706 11.0027 16.5003 11.4133 16.031 11.692C15.5616 11.9707 15.0373 12.11 14.458 12.11ZM14.568 11.45C15.03 11.45 15.3673 11.2153 15.58 10.746C15.8 10.2693 15.91 9.56167 15.91 8.623C15.91 7.62567 15.8073 6.896 15.602 6.434C15.404 5.96467 15.063 5.73 14.579 5.73C13.6696 5.73 13.215 6.65033 13.215 8.491C13.215 9.47367 13.3213 10.2143 13.534 10.713C13.754 11.2043 14.0986 11.45 14.568 11.45ZM21.6875 12.11C20.7488 12.11 20.0301 11.7983 19.5315 11.175C19.0401 10.5443 18.7945 9.69 18.7945 8.612C18.7945 7.84933 18.9375 7.204 19.2235 6.676C19.5095 6.14067 19.8871 5.741 20.3565 5.477C20.8331 5.20567 21.3611 5.07 21.9405 5.07C22.8865 5.07 23.5978 5.37067 24.0745 5.972C24.5511 6.566 24.7895 7.40933 24.7895 8.502C24.7895 9.25733 24.6501 9.91 24.3715 10.46C24.1001 11.0027 23.7298 11.4133 23.2605 11.692C22.7911 11.9707 22.2668 12.11 21.6875 12.11ZM21.7975 11.45C22.2595 11.45 22.5968 11.2153 22.8095 10.746C23.0295 10.2693 23.1395 9.56167 23.1395 8.623C23.1395 7.62567 23.0368 6.896 22.8315 6.434C22.6335 5.96467 22.2925 5.73 21.8085 5.73C20.8991 5.73 20.4445 6.65033 20.4445 8.491C20.4445 9.47367 20.5508 10.2143 20.7635 10.713C20.9835 11.2043 21.3281 11.45 21.7975 11.45ZM32.481 3.739H33.504L29.973 12H28.961L32.481 3.739ZM27.993 8.535C27.5603 8.535 27.19 8.43233 26.882 8.227C26.574 8.02167 26.3393 7.743 26.178 7.391C26.0166 7.039 25.936 6.65033 25.936 6.225C25.936 5.73367 26.035 5.30833 26.233 4.949C26.431 4.58233 26.6986 4.30367 27.036 4.113C27.3806 3.92233 27.762 3.827 28.18 3.827C28.8913 3.827 29.412 4.03967 29.742 4.465C30.0793 4.89033 30.248 5.455 30.248 6.159C30.248 6.65033 30.1453 7.07567 29.94 7.435C29.742 7.79433 29.4706 8.06933 29.126 8.26C28.7813 8.44333 28.4036 8.535 27.993 8.535ZM28.081 7.875C28.389 7.875 28.6126 7.72833 28.752 7.435C28.8986 7.13433 28.972 6.72367 28.972 6.203C28.972 5.70433 28.9023 5.29733 28.763 4.982C28.631 4.65933 28.4146 4.498 28.114 4.498C27.8133 4.498 27.5896 4.64467 27.443 4.938C27.2963 5.23133 27.223 5.63833 27.223 6.159C27.223 6.62833 27.2926 7.03167 27.432 7.369C27.5713 7.70633 27.7876 7.875 28.081 7.875ZM34.296 11.846C33.8706 11.846 33.5003 11.7433 33.185 11.538C32.877 11.3253 32.6423 11.0467 32.481 10.702C32.3196 10.35 32.239 9.96133 32.239 9.536C32.239 9.04467 32.338 8.61933 32.536 8.26C32.734 7.89333 33.0053 7.61467 33.35 7.424C33.6946 7.23333 34.076 7.138 34.494 7.138C35.198 7.138 35.715 7.35067 36.045 7.776C36.3823 8.20133 36.551 8.766 36.551 9.47C36.551 9.96133 36.4483 10.3867 36.243 10.746C36.045 11.1053 35.7736 11.3803 35.429 11.571C35.0843 11.7543 34.7066 11.846 34.296 11.846ZM34.384 11.175C34.692 11.175 34.9156 11.0283 35.055 10.735C35.2016 10.4417 35.275 10.0347 35.275 9.514C35.275 9.02267 35.2053 8.61567 35.066 8.293C34.934 7.97033 34.7213 7.809 34.428 7.809C34.12 7.809 33.8926 7.95567 33.746 8.249C33.5993 8.54233 33.526 8.94933 33.526 9.47C33.526 9.93933 33.5956 10.3427 33.735 10.68C33.8743 11.01 34.0906 11.175 34.384 11.175Z" fill="black"/>
</svg>
